<?xml version="1.0" encoding="utf-8"?>
<!-- Generator: Adobe Illustrator 27.1.1, SVG Export Plug-In . SVG Version: 6.00 Build 0)  -->
<svg version="1.1" xmlns="http://www.w3.org/2000/svg" xmlns:xlink="http://www.w3.org/1999/xlink" x="0px" y="0px"
	 viewBox="0 0 728.93 219.93" style="enable-background:new 0 0 728.93 219.93;" xml:space="preserve">
<style type="text/css">
	.st0{fill:url(#SVGID_1_);}
	.st1{fill:url(#SVGID_00000114791541579633627850000000293756206222933418_);}
	.st2{fill:url(#SVGID_00000106867780879471909810000007148524586189673885_);}
	.st3{fill:url(#SVGID_00000114781009457783022820000003204359598060690342_);}
	.st4{fill:url(#SVGID_00000028306545727092359250000003788783170314869694_);}
	.st5{fill:url(#SVGID_00000145054885811653313300000005162829967095254432_);}
	.st6{fill:url(#SVGID_00000176015202445868395270000009378561111222417809_);}
	.st7{fill:url(#SVGID_00000006690006168890647370000001242841430095497634_);}
	.st8{fill:url(#SVGID_00000070103669369754170880000003204206327479525051_);}
	.st9{fill:url(#SVGID_00000164488890488747899480000006684909090198121381_);}
	.st10{fill:url(#SVGID_00000139995524212521403610000003954530127692051381_);}
	.st11{fill:url(#SVGID_00000010271747200210196040000011321232720642164898_);}
	.st12{fill:url(#SVGID_00000145026970395562615310000001197852007545789362_);}
	.st13{fill:url(#SVGID_00000147188588278241926800000005911794712630328986_);}
</style>
<g id="Background">
</g>
<g id="Objects">
	<g>
		<g>
			<linearGradient id="SVGID_1_" gradientUnits="userSpaceOnUse" x1="-29.8788" y1="200.6386" x2="781.1216" y2="15.638">
				<stop  offset="5.327789e-09" style="stop-color:#FDD500"/>
				<stop  offset="0.0846" style="stop-color:#F5CC00"/>
				<stop  offset="0.2226" style="stop-color:#DFB400"/>
				<stop  offset="0.396" style="stop-color:#BC8C00"/>
				<stop  offset="0.4438" style="stop-color:#B18000"/>
				<stop  offset="0.6742" style="stop-color:#D79C00"/>
				<stop  offset="0.8801" style="stop-color:#F3B000"/>
				<stop  offset="1" style="stop-color:#FDB800"/>
			</linearGradient>
			<path class="st0" d="M378.57,171.15h133.5L449.8,3.3h-44.36l-39.48,105.94h13.69c12.19,0,23.08-7.73,27.1-19.24l20.72-59.35
				l40.69,116.64H351.81L326,216.58c22.31-0.97,42.01-15.46,49.48-36.67L378.57,171.15z"/>
			
				<linearGradient id="SVGID_00000124883391984411518320000017893268684357437829_" gradientUnits="userSpaceOnUse" x1="324.9805" y1="222.2237" x2="549.072" y2="-1.8679">
				<stop  offset="5.327789e-09" style="stop-color:#FDD500"/>
				<stop  offset="0.0846" style="stop-color:#F5CC00"/>
				<stop  offset="0.2226" style="stop-color:#DFB400"/>
				<stop  offset="0.396" style="stop-color:#BC8C00"/>
				<stop  offset="0.4438" style="stop-color:#B18000"/>
				<stop  offset="0.6742" style="stop-color:#D79C00"/>
				<stop  offset="0.8801" style="stop-color:#F3B000"/>
				<stop  offset="1" style="stop-color:#FDB800"/>
			</linearGradient>
			<path style="fill:url(#SVGID_00000124883391984411518320000017893268684357437829_);" d="M452.1,0h-48.94l-41.94,112.53h18.44
				c13.59,0,25.73-8.62,30.21-21.45l17.6-50.42l36.04,103.33H349.52l-28.29,75.94h2.37c24.68,0,46.78-15.64,54.99-38.92l2.31-6.56
				h135.9L452.1,0z M326,216.58l25.82-69.29h116.34L427.47,30.65l-20.72,59.35c-4.02,11.51-14.91,19.24-27.1,19.24h-13.69
				L405.44,3.3h44.36l62.26,167.86h-133.5l-3.09,8.76C368,201.12,348.31,215.61,326,216.58z"/>
		</g>
		<g>
			
				<linearGradient id="SVGID_00000145762769518982999480000010884450257217652413_" gradientUnits="userSpaceOnUse" x1="-54.6727" y1="91.9485" x2="756.3267" y2="-93.052">
				<stop  offset="5.327789e-09" style="stop-color:#FDD500"/>
				<stop  offset="0.0846" style="stop-color:#F5CC00"/>
				<stop  offset="0.2226" style="stop-color:#DFB400"/>
				<stop  offset="0.396" style="stop-color:#BC8C00"/>
				<stop  offset="0.4438" style="stop-color:#B18000"/>
				<stop  offset="0.6742" style="stop-color:#D79C00"/>
				<stop  offset="0.8801" style="stop-color:#F3B000"/>
				<stop  offset="1" style="stop-color:#FDB800"/>
			</linearGradient>
			<path style="fill:url(#SVGID_00000145762769518982999480000010884450257217652413_);" d="M154.19,68.76
				c0-20.14-6.23-36.25-18.52-47.87C123.33,9.22,104.45,3.3,79.54,3.3H3.35C4.2,17.61,16.12,29,30.64,29h44.14
				c15.48,0,26.51,3.38,33.73,10.33l0,0c7.16,6.95,10.79,16.85,10.79,29.43c0,10.97-2.88,19.87-8.55,26.44
				c-7.36,8.54-19.29,12.91-35.46,13.01v25.38h4.24c24.07,0,42.76-5.94,55.57-17.65C147.77,104.35,154.19,88.48,154.19,68.76z"/>
			
				<linearGradient id="SVGID_00000083074617803217143040000010053710732493447571_" gradientUnits="userSpaceOnUse" x1="26.4309" y1="101.4665" x2="145.5486" y2="-17.6512">
				<stop  offset="5.327789e-09" style="stop-color:#FDD500"/>
				<stop  offset="0.0846" style="stop-color:#F5CC00"/>
				<stop  offset="0.2226" style="stop-color:#DFB400"/>
				<stop  offset="0.396" style="stop-color:#BC8C00"/>
				<stop  offset="0.4438" style="stop-color:#B18000"/>
				<stop  offset="0.6742" style="stop-color:#D79C00"/>
				<stop  offset="0.8801" style="stop-color:#F3B000"/>
				<stop  offset="1" style="stop-color:#FDB800"/>
			</linearGradient>
			<path style="fill:url(#SVGID_00000083074617803217143040000010053710732493447571_);" d="M137.94,18.49
				C124.97,6.22,105.32,0,79.54,0H0v1.65c0,16.9,13.75,30.64,30.64,30.64h44.14c14.58,0,24.86,3.08,31.44,9.41
				c6.49,6.3,9.78,15.41,9.78,27.06c0,10.15-2.61,18.33-7.75,24.29c-6.79,7.87-18.05,11.86-33.48,11.86H72v31.97h7.54
				c24.92,0,44.36-6.23,57.79-18.51c13.38-12.24,20.16-28.93,20.16-49.62C157.49,47.68,150.91,30.76,137.94,18.49z M75.29,133.59
				v-25.38c16.17-0.09,28.1-4.46,35.46-13.01c5.67-6.58,8.55-15.48,8.55-26.44c0-12.58-3.63-22.48-10.79-29.43l0,0
				C101.29,32.38,90.26,29,74.78,29H30.64C16.12,29,4.2,17.61,3.35,3.3h76.19c24.91,0,43.8,5.92,56.14,17.59
				c12.29,11.62,18.52,27.73,18.52,47.87c0,19.72-6.42,35.59-19.09,47.18c-12.8,11.71-31.5,17.65-55.57,17.65H75.29z"/>
			
				<linearGradient id="SVGID_00000006690574410589835310000000389517920787666346_" gradientUnits="userSpaceOnUse" x1="-35.5657" y1="175.7102" x2="775.4333" y2="-9.2901">
				<stop  offset="5.327789e-09" style="stop-color:#FDD500"/>
				<stop  offset="0.0846" style="stop-color:#F5CC00"/>
				<stop  offset="0.2226" style="stop-color:#DFB400"/>
				<stop  offset="0.396" style="stop-color:#BC8C00"/>
				<stop  offset="0.4438" style="stop-color:#B18000"/>
				<stop  offset="0.6742" style="stop-color:#D79C00"/>
				<stop  offset="0.8801" style="stop-color:#F3B000"/>
				<stop  offset="1" style="stop-color:#FDB800"/>
			</linearGradient>
			<path style="fill:url(#SVGID_00000006690574410589835310000000389517920787666346_);" d="M8.85,109.24H3.3v107.39h34.25v-78.69
				C37.55,122.12,24.68,109.24,8.85,109.24z"/>
			
				<linearGradient id="SVGID_00000179615744329314764620000004179871741414707093_" gradientUnits="userSpaceOnUse" x1="-20.0369" y1="203.3998" x2="66.8556" y2="116.5073">
				<stop  offset="5.327789e-09" style="stop-color:#FDD500"/>
				<stop  offset="0.0846" style="stop-color:#F5CC00"/>
				<stop  offset="0.2226" style="stop-color:#DFB400"/>
				<stop  offset="0.396" style="stop-color:#BC8C00"/>
				<stop  offset="0.4438" style="stop-color:#B18000"/>
				<stop  offset="0.6742" style="stop-color:#D79C00"/>
				<stop  offset="0.8801" style="stop-color:#F3B000"/>
				<stop  offset="1" style="stop-color:#FDB800"/>
			</linearGradient>
			<path style="fill:url(#SVGID_00000179615744329314764620000004179871741414707093_);" d="M8.85,105.95H0v113.98h40.85v-81.99
				C40.85,120.3,26.5,105.95,8.85,105.95z M37.55,216.63H3.3V109.24h5.55c15.82,0,28.7,12.87,28.7,28.7V216.63z"/>
		</g>
		<g>
			
				<linearGradient id="SVGID_00000058556379439171392920000006910578425419824043_" gradientUnits="userSpaceOnUse" x1="2.6457" y1="343.2249" x2="813.6465" y2="158.2241">
				<stop  offset="5.327789e-09" style="stop-color:#FDD500"/>
				<stop  offset="0.0846" style="stop-color:#F5CC00"/>
				<stop  offset="0.2226" style="stop-color:#DFB400"/>
				<stop  offset="0.396" style="stop-color:#BC8C00"/>
				<stop  offset="0.4438" style="stop-color:#B18000"/>
				<stop  offset="0.6742" style="stop-color:#D79C00"/>
				<stop  offset="0.8801" style="stop-color:#F3B000"/>
				<stop  offset="1" style="stop-color:#FDB800"/>
			</linearGradient>
			<path style="fill:url(#SVGID_00000058556379439171392920000006910578425419824043_);" d="M616.56,204.74v11.89h34.57v-40.59
				h-5.87C629.43,176.04,616.56,188.92,616.56,204.74z"/>
			
				<linearGradient id="SVGID_00000024691242883420018920000012774780518560090004_" gradientUnits="userSpaceOnUse" x1="595.4698" y1="244.0918" x2="666.8074" y2="172.7542">
				<stop  offset="5.327789e-09" style="stop-color:#FDD500"/>
				<stop  offset="0.0846" style="stop-color:#F5CC00"/>
				<stop  offset="0.2226" style="stop-color:#DFB400"/>
				<stop  offset="0.396" style="stop-color:#BC8C00"/>
				<stop  offset="0.4438" style="stop-color:#B18000"/>
				<stop  offset="0.6742" style="stop-color:#D79C00"/>
				<stop  offset="0.8801" style="stop-color:#F3B000"/>
				<stop  offset="1" style="stop-color:#FDB800"/>
			</linearGradient>
			<path style="fill:url(#SVGID_00000024691242883420018920000012774780518560090004_);" d="M613.26,204.74v15.19h41.17v-47.19
				h-9.17C627.61,172.74,613.26,187.1,613.26,204.74z M651.13,216.63h-34.57v-11.89c0-15.82,12.87-28.7,28.7-28.7h5.87V216.63z"/>
			
				<linearGradient id="SVGID_00000134218431171867789970000003324876399493530496_" gradientUnits="userSpaceOnUse" x1="-27.2994" y1="211.9512" x2="783.7003" y2="26.9507">
				<stop  offset="5.327789e-09" style="stop-color:#FDD500"/>
				<stop  offset="0.0846" style="stop-color:#F5CC00"/>
				<stop  offset="0.2226" style="stop-color:#DFB400"/>
				<stop  offset="0.396" style="stop-color:#BC8C00"/>
				<stop  offset="0.4438" style="stop-color:#B18000"/>
				<stop  offset="0.6742" style="stop-color:#D79C00"/>
				<stop  offset="0.8801" style="stop-color:#F3B000"/>
				<stop  offset="1" style="stop-color:#FDB800"/>
			</linearGradient>
			<path style="fill:url(#SVGID_00000134218431171867789970000003324876399493530496_);" d="M583.35,3.3h-39.46l70.57,135h21.35
				c10.74,0,20.5-5.92,25.46-15.45L723.5,3.3h-38.53l-50.81,104.67L583.35,3.3z"/>
			
				<linearGradient id="SVGID_00000053518227599668549670000010297529108905095602_" gradientUnits="userSpaceOnUse" x1="532.8598" y1="131.6989" x2="686.0701" y2="-21.5114">
				<stop  offset="5.327789e-09" style="stop-color:#FDD500"/>
				<stop  offset="0.0846" style="stop-color:#F5CC00"/>
				<stop  offset="0.2226" style="stop-color:#DFB400"/>
				<stop  offset="0.396" style="stop-color:#BC8C00"/>
				<stop  offset="0.4438" style="stop-color:#B18000"/>
				<stop  offset="0.6742" style="stop-color:#D79C00"/>
				<stop  offset="0.8801" style="stop-color:#F3B000"/>
				<stop  offset="1" style="stop-color:#FDB800"/>
			</linearGradient>
			<path style="fill:url(#SVGID_00000053518227599668549670000010297529108905095602_);" d="M634.16,100.42L585.41,0h-46.97
				l73.55,140.71l0.46,0.89h23.35c11.98,0,22.85-6.6,28.38-17.22L728.93,0h-46.03L634.16,100.42z M723.5,3.3l-62.23,119.55
				c-4.96,9.53-14.71,15.45-25.46,15.45h-21.35l-70.57-135h39.46l50.81,104.67L684.97,3.3H723.5z"/>
		</g>
		<g>
			
				<linearGradient id="SVGID_00000139260250843320199490000016123909703905751695_" gradientUnits="userSpaceOnUse" x1="-45.2705" y1="133.1689" x2="765.7278" y2="-51.8313">
				<stop  offset="5.327789e-09" style="stop-color:#FDD500"/>
				<stop  offset="0.0846" style="stop-color:#F5CC00"/>
				<stop  offset="0.2226" style="stop-color:#DFB400"/>
				<stop  offset="0.396" style="stop-color:#BC8C00"/>
				<stop  offset="0.4438" style="stop-color:#B18000"/>
				<stop  offset="0.6742" style="stop-color:#D79C00"/>
				<stop  offset="0.8801" style="stop-color:#F3B000"/>
				<stop  offset="1" style="stop-color:#FDB800"/>
			</linearGradient>
			<path style="fill:url(#SVGID_00000139260250843320199490000016123909703905751695_);" d="M221.18,3.3h-34.25v151.8h5.55
				c15.82,0,28.7-12.87,28.7-28.7V3.3z"/>
			
				<linearGradient id="SVGID_00000104678195936499350940000014420247700922581691_" gradientUnits="userSpaceOnUse" x1="140.8477" y1="133.0189" x2="244.6912" y2="29.1754">
				<stop  offset="5.327789e-09" style="stop-color:#FDD500"/>
				<stop  offset="0.0846" style="stop-color:#F5CC00"/>
				<stop  offset="0.2226" style="stop-color:#DFB400"/>
				<stop  offset="0.396" style="stop-color:#BC8C00"/>
				<stop  offset="0.4438" style="stop-color:#B18000"/>
				<stop  offset="0.6742" style="stop-color:#D79C00"/>
				<stop  offset="0.8801" style="stop-color:#F3B000"/>
				<stop  offset="1" style="stop-color:#FDB800"/>
			</linearGradient>
			<path style="fill:url(#SVGID_00000104678195936499350940000014420247700922581691_);" d="M224.48,126.4V0h-40.85v158.4h8.85
				C210.12,158.4,224.48,144.04,224.48,126.4z M192.48,155.1h-5.55V3.3h34.25v123.1C221.18,142.22,208.3,155.1,192.48,155.1z"/>
			
				<linearGradient id="SVGID_00000173847311158666892230000000553546666783065523_" gradientUnits="userSpaceOnUse" x1="-15.5631" y1="263.3953" x2="795.4363" y2="78.3949">
				<stop  offset="5.327789e-09" style="stop-color:#FDD500"/>
				<stop  offset="0.0846" style="stop-color:#F5CC00"/>
				<stop  offset="0.2226" style="stop-color:#DFB400"/>
				<stop  offset="0.396" style="stop-color:#BC8C00"/>
				<stop  offset="0.4438" style="stop-color:#B18000"/>
				<stop  offset="0.6742" style="stop-color:#D79C00"/>
				<stop  offset="0.8801" style="stop-color:#F3B000"/>
				<stop  offset="1" style="stop-color:#FDB800"/>
			</linearGradient>
			<path style="fill:url(#SVGID_00000173847311158666892230000000553546666783065523_);" d="M270.86,192.84h-83.93v23.79h109.32
				C295.39,203.37,284.33,192.84,270.86,192.84z"/>
			
				<linearGradient id="SVGID_00000119821542172346420880000016572320318945094025_" gradientUnits="userSpaceOnUse" x1="195.2557" y1="251.091" x2="281.261" y2="165.0857">
				<stop  offset="5.327789e-09" style="stop-color:#FDD500"/>
				<stop  offset="0.0846" style="stop-color:#F5CC00"/>
				<stop  offset="0.2226" style="stop-color:#DFB400"/>
				<stop  offset="0.396" style="stop-color:#BC8C00"/>
				<stop  offset="0.4438" style="stop-color:#B18000"/>
				<stop  offset="0.6742" style="stop-color:#D79C00"/>
				<stop  offset="0.8801" style="stop-color:#F3B000"/>
				<stop  offset="1" style="stop-color:#FDB800"/>
			</linearGradient>
			<path style="fill:url(#SVGID_00000119821542172346420880000016572320318945094025_);" d="M183.63,219.93h115.97v-1.65
				c0-15.85-12.89-28.74-28.74-28.74h-87.23V219.93z M186.92,192.84h83.93c13.47,0,24.53,10.53,25.39,23.79H186.92V192.84z"/>
		</g>
	</g>
</g>
</svg>
